# Blender v2.71 (sub 5) OBJ File: ''
# www.blender.org
o gem_2
v -0.441764 0.403308 0.207440
v -0.207440 0.403308 0.441764
v -0.307810 0.480050 0.307810
v -0.015056 0.013954 -0.001477
v -0.267741 0.200106 -0.002849
v -0.449583 0.391650 -0.177902
v -0.010511 0.487532 -0.428492
v -0.195251 0.406128 -0.450833
v -0.300044 0.487493 -0.306248
v -0.003030 0.491991 -0.423648
v -0.109513 0.571612 -0.280127
v 0.102601 0.572528 -0.279526
v 0.196397 0.206309 -0.193666
v 0.193747 0.392262 -0.447908
v 0.447989 0.392262 -0.193666
v 0.453975 0.406402 0.175010
v 0.455730 0.401041 -0.167232
v 0.433188 0.482164 0.003086
v -0.008240 0.013945 -0.008402
v -0.187293 0.200151 -0.191294
v -0.192107 0.391650 -0.443699
v 0.193522 0.206453 0.196523
v 0.446041 0.398275 0.201297
v 0.186941 0.398274 0.452192
v 0.423648 0.491991 0.003031
v 0.279526 0.572528 -0.102601
v 0.280127 0.571612 0.109513
v 0.275692 0.206307 0.001991
v 0.453707 0.392377 -0.179772
v 0.451824 0.398129 0.187431
v 0.197732 0.406704 0.444426
v 0.438437 0.406704 0.211344
v 0.304255 0.482220 0.308600
v 0.001474 0.013783 -0.008222
v 0.002855 0.200063 -0.267690
v 0.184638 0.386047 -0.445756
v 0.306248 0.487493 0.300044
v 0.450833 0.406128 0.195251
v 0.428492 0.487532 0.010512
v 0.297484 0.491989 0.301724
v 0.272317 0.571560 0.128150
v 0.120817 0.571560 0.275551
v -0.170269 0.403517 0.456926
v 0.160814 0.406513 0.459655
v -0.000033 0.480068 0.435290
v -0.002082 0.206448 0.275898
v 0.173052 0.398217 0.457781
v -0.183581 0.394990 0.454843
v -0.000088 0.489975 0.425575
v 0.102068 0.571497 0.283280
v -0.106357 0.570835 0.283316
v 0.007298 0.485409 0.430603
v 0.180708 0.406122 0.456878
v 0.295557 0.487532 0.310423
v -0.197387 0.208936 0.197387
v -0.197387 0.394918 0.449019
v -0.449019 0.394919 0.197387
v 0.008402 0.013945 0.008240
v 0.267626 0.200141 0.006789
v 0.443699 0.391650 0.192107
v -0.299232 0.485346 0.309711
v -0.191230 0.402776 0.453865
v -0.007473 0.485394 0.430503
v -0.301005 0.489895 0.301005
v -0.125141 0.570814 0.275537
v -0.275537 0.570814 0.125141
v -0.459655 0.406514 -0.160814
v -0.456926 0.403518 0.170269
v -0.435290 0.480069 0.000033
v -0.275898 0.206449 0.002082
v -0.454843 0.394990 0.183581
v -0.457781 0.398217 -0.173052
v 0.001476 0.013954 0.015056
v 0.184451 0.200100 0.194080
v 0.177902 0.391649 0.449583
v -0.425575 0.489976 0.000088
v -0.283316 0.570835 0.106357
v -0.283280 0.571497 -0.102068
v -0.430503 0.485395 0.007473
v -0.453865 0.402777 0.191230
v -0.309711 0.485346 0.299232
v -0.310423 0.487532 -0.295557
v -0.456878 0.406122 -0.180708
v -0.430603 0.485409 -0.007298
v -0.196523 0.206454 -0.193522
v -0.452192 0.398275 -0.186941
v -0.201297 0.398275 -0.446041
v -0.211344 0.406704 -0.438437
v -0.444426 0.406704 -0.197732
v -0.308600 0.482220 -0.304255
v -0.301724 0.491989 -0.297484
v -0.275551 0.571560 -0.120817
v -0.128149 0.571560 -0.272317
v -0.015108 0.014042 0.008236
v -0.195104 0.202576 0.188236
v -0.446608 0.388455 0.188238
v 0.167232 0.401041 -0.455730
v -0.175010 0.406403 -0.453975
v -0.003086 0.482164 -0.433188
v 0.441577 0.400671 -0.202971
v 0.202971 0.400671 -0.441577
v 0.304951 0.483947 -0.304951
v 0.298133 0.493760 -0.298133
v 0.121371 0.572595 -0.271723
v 0.271723 0.572595 -0.121371
v 0.428553 0.487418 -0.004356
v 0.452887 0.400302 -0.187533
v 0.306821 0.489161 -0.296449
v -0.001991 0.206307 -0.275692
v -0.187431 0.398129 -0.451824
v 0.179772 0.392377 -0.453707
v 0.296449 0.489161 -0.306821
v 0.187533 0.400302 -0.452887
v 0.004357 0.487418 -0.428553
v -0.270134 0.574023 -0.112960
v -0.270148 0.573315 0.117311
v -0.117311 0.573315 0.270148
v -0.008237 0.014042 0.015107
v -0.006831 0.200016 0.267752
v -0.188238 0.388455 0.446608
v -0.006789 0.200141 -0.267626
v 0.113640 0.570823 -0.279596
v 0.113559 0.575000 -0.266265
v 0.187266 0.200078 -0.191329
v 0.194080 0.200115 -0.184480
v 0.445636 0.385889 -0.184508
v 0.270153 0.574977 -0.104344
v 0.279596 0.570823 -0.113640
v 0.267690 0.200063 -0.002856
v 0.270763 0.574046 0.111086
v 0.280222 0.569795 0.120523
v 0.191294 0.200150 0.187293
v 0.112999 0.569768 0.283385
v 0.112960 0.574023 0.270134
v 0.002849 0.200106 0.267741
v -0.117382 0.569032 0.283385
v -0.188236 0.202576 0.195104
v -0.273974 0.573332 0.108072
v -0.283385 0.569032 0.117382
v -0.267752 0.200016 0.006831
v -0.283385 0.569768 -0.112999
v -0.273937 0.574005 -0.103711
v -0.194080 0.200100 -0.184451
v -0.120522 0.569795 -0.280222
v -0.120324 0.574023 -0.266935
v -0.111085 0.574046 -0.270763
v 0.104344 0.574977 -0.270153
v 0.266265 0.575000 -0.113558
v -0.108072 0.573332 0.273974
v 0.008477 0.013938 -0.001481
v 0.103711 0.574005 0.273937
v 0.266935 0.574023 0.120325
vn -0.748400 0.171800 0.640600
vn -0.640600 0.171800 0.748400
vn -0.613700 0.496600 0.613700
vn -0.341000 -0.930500 -0.133900
vn -0.603700 -0.786400 -0.130300
vn -0.633200 -0.730100 -0.257000
vn -0.129800 0.698300 -0.703900
vn -0.375100 0.282900 -0.882700
vn -0.410000 0.703500 -0.580400
vn 0.001900 0.813600 -0.581300
vn -0.081700 0.913200 -0.399100
vn 0.073800 0.914000 -0.398900
vn 0.470300 -0.748800 -0.467000
vn 0.510200 -0.432900 -0.743100
vn 0.744300 -0.432200 -0.509000
vn 0.983400 0.161800 0.082100
vn 0.985700 0.152300 -0.072600
vn 0.877100 0.480200 -0.001800
vn -0.148200 -0.928500 -0.340300
vn -0.331200 -0.789100 -0.517300
vn -0.270100 -0.729000 -0.628900
vn 0.470500 -0.741800 0.477800
vn 0.742400 -0.415300 0.525700
vn 0.507200 -0.414500 0.755500
vn 0.581300 0.813600 -0.001900
vn 0.398900 0.914000 -0.073800
vn 0.399100 0.913200 0.081700
vn 0.668100 -0.744000 0.012500
vn 0.890700 -0.427100 -0.155700
vn 0.890100 -0.421000 0.174300
vn 0.630200 0.177600 0.755800
vn 0.737700 0.178300 0.651200
vn 0.604700 0.498700 0.621000
vn 0.134300 -0.935300 -0.327200
vn 0.118300 -0.793200 -0.597400
vn 0.256000 -0.734500 -0.628500
vn 0.580400 0.703500 0.410000
vn 0.882700 0.282900 0.375100
vn 0.703900 0.698300 0.129800
vn 0.405900 0.814600 0.414300
vn 0.336300 0.912600 0.232600
vn 0.225400 0.912400 0.341700
vn -0.081800 0.171800 0.981700
vn 0.068400 0.174000 0.982300
vn -0.007600 0.495000 0.868800
vn 0.004100 -0.743200 0.669000
vn 0.159600 -0.419600 0.893500
vn -0.166900 -0.421000 0.891500
vn -0.003000 0.811600 0.584200
vn 0.074600 0.910900 0.405700
vn -0.080700 0.909800 0.407200
vn 0.123100 0.701600 0.701900
vn 0.358700 0.285900 0.888500
vn 0.398600 0.702800 0.589200
vn -0.472500 -0.743900 0.472500
vn -0.515000 -0.424900 0.744400
vn -0.744400 -0.424900 0.515000
vn 0.335400 -0.930800 0.145100
vn 0.596900 -0.790200 0.138800
vn 0.628900 -0.729000 0.270100
vn -0.406000 0.698700 0.588900
vn -0.369800 0.277800 0.886600
vn -0.132200 0.697800 0.703900
vn -0.414000 0.810600 0.414000
vn -0.232000 0.910200 0.343100
vn -0.343200 0.910200 0.232000
vn -0.982300 0.174100 -0.068400
vn -0.981700 0.171800 0.081800
vn -0.868800 0.495000 0.007600
vn -0.669000 -0.743200 -0.004100
vn -0.891500 -0.421000 0.166900
vn -0.893500 -0.419600 -0.159600
vn 0.134200 -0.930600 0.340400
vn 0.334700 -0.788000 0.516800
vn 0.257000 -0.730000 0.633200
vn -0.584200 0.811600 0.003000
vn -0.407200 0.909800 0.080700
vn -0.405700 0.910900 -0.074600
vn -0.703900 0.697800 0.132100
vn -0.886600 0.277800 0.369800
vn -0.588900 0.698700 0.406000
vn -0.589200 0.702800 -0.398600
vn -0.888500 0.285900 -0.358700
vn -0.701900 0.701600 -0.123100
vn -0.477700 -0.741800 -0.470500
vn -0.755500 -0.414500 -0.507200
vn -0.525700 -0.415300 -0.742400
vn -0.651200 0.178300 -0.737700
vn -0.755800 0.177600 -0.630200
vn -0.621000 0.498700 -0.604700
vn -0.414300 0.814600 -0.405900
vn -0.341700 0.912400 -0.225400
vn -0.232600 0.912600 -0.336300
vn -0.342100 -0.928300 0.145200
vn -0.511400 -0.786200 0.346800
vn -0.625900 -0.735000 0.260600
vn 0.072600 0.152300 -0.985700
vn -0.082100 0.161800 -0.983400
vn 0.001800 0.480200 -0.877100
vn 0.752400 0.157800 -0.639500
vn 0.639500 0.157700 -0.752500
vn 0.615400 0.492500 -0.615400
vn 0.409700 0.815000 -0.409700
vn 0.223900 0.915500 -0.334200
vn 0.334200 0.915500 -0.223900
vn 0.707800 0.693500 -0.133900
vn 0.893300 0.260900 -0.365900
vn 0.593400 0.697800 -0.401100
vn -0.012500 -0.744000 -0.668100
vn -0.174300 -0.421000 -0.890100
vn 0.156300 -0.427300 -0.890500
vn 0.401100 0.697800 -0.593400
vn 0.366500 0.259800 -0.893400
vn 0.133900 0.693500 -0.707800
vn -0.145800 0.986400 -0.075800
vn -0.147300 0.985700 0.081100
vn -0.081100 0.985700 0.147300
vn -0.145300 -0.928300 0.342100
vn -0.114900 -0.787300 0.605700
vn -0.260600 -0.735000 0.625900
vn -0.138800 -0.790200 -0.596900
vn 0.190200 0.864300 -0.465700
vn 0.075000 0.987200 -0.140300
vn 0.335200 -0.794300 -0.506700
vn 0.511800 -0.794200 -0.327500
vn 0.628600 -0.735200 -0.253500
vn 0.155700 0.986800 -0.043500
vn 0.465700 0.864300 -0.190200
vn 0.597500 -0.793100 -0.118200
vn 0.157300 0.986300 0.049800
vn 0.467900 0.861200 0.198500
vn 0.517300 -0.789100 0.331300
vn 0.190700 0.860900 0.471600
vn 0.075800 0.986400 0.145800
vn 0.130300 -0.786400 0.603700
vn -0.197300 0.857700 0.474800
vn -0.346800 -0.786200 0.511400
vn -0.160800 0.985700 0.049700
vn -0.474800 0.857700 0.197300
vn -0.605700 -0.787300 0.114900
vn -0.471600 0.860900 -0.190700
vn -0.157600 0.986500 -0.043500
vn -0.516800 -0.788000 -0.334700
vn -0.198500 0.861200 -0.467900
vn -0.081500 0.986100 -0.144900
vn -0.049800 0.986300 -0.157300
vn 0.043500 0.986800 -0.155700
vn 0.140300 0.987200 -0.075000
vn -0.049700 0.985700 0.160800
vn 0.342000 -0.929800 -0.136000
vn 0.043500 0.986500 0.157600
vn 0.144900 0.986100 0.081500
s 1
f 1//1 2//2 3//3
f 4//4 5//5 6//6
f 7//7 8//8 9//9
f 10//10 11//11 12//12
f 13//13 14//14 15//15
f 16//16 17//17 18//18
f 19//19 20//20 21//21
f 22//22 23//23 24//24
f 25//25 26//26 27//27
f 28//28 29//29 30//30
f 31//31 32//32 33//33
f 34//34 35//35 36//36
f 37//37 38//38 39//39
f 40//40 41//41 42//42
f 43//43 44//44 45//45
f 46//46 47//47 48//48
f 49//49 50//50 51//51
f 52//52 53//53 54//54
f 55//55 56//56 57//57
f 58//58 59//59 60//60
f 61//61 62//62 63//63
f 64//64 65//65 66//66
f 67//67 68//68 69//69
f 70//70 71//71 72//72
f 73//73 74//74 75//75
f 76//76 77//77 78//78
f 79//79 80//80 81//81
f 82//82 83//83 84//84
f 85//85 86//86 87//87
f 88//88 89//89 90//90
f 91//91 92//92 93//93
f 94//94 95//95 96//96
f 97//97 98//98 99//99
f 100//100 101//101 102//102
f 103//103 104//104 105//105
f 106//106 107//107 108//108
f 109//109 110//110 111//111
f 112//112 113//113 114//114
f 115//115 116//116 117//117
f 118//118 119//119 120//120
f 73//73 118//118 94//94
f 109//109 35//35 121//121
f 111//111 97//97 113//113
f 7//7 10//10 114//114
f 104//104 122//122 123//123
f 124//124 13//13 125//125
f 29//29 126//126 15//15
f 108//108 102//102 112//112
f 127//127 26//26 128//128
f 129//129 28//28 59//59
f 23//23 60//60 30//30
f 106//106 25//25 39//39
f 27//27 130//130 131//131
f 132//132 22//22 74//74
f 24//24 31//31 53//53
f 37//37 40//40 54//54
f 133//133 42//42 134//134
f 119//119 135//135 46//46
f 48//48 43//43 62//62
f 52//52 49//49 63//63
f 117//117 65//65 136//136
f 95//95 137//137 55//55
f 80//80 68//68 71//71
f 61//61 64//64 81//81
f 138//138 77//77 139//139
f 140//140 70//70 5//5
f 83//83 89//89 86//86
f 84//84 69//69 79//79
f 141//141 78//78 142//142
f 85//85 20//20 143//143
f 87//87 88//88 8//8
f 82//82 91//91 9//9
f 144//144 93//93 145//145
f 45//45 44//44 53//53
f 56//56 55//55 137//137
f 57//57 56//56 2//2
f 125//125 13//13 15//15
f 69//69 84//84 83//83
f 57//57 96//96 95//95
f 34//34 124//124 125//125
f 138//138 142//142 78//78
f 29//29 28//28 129//129
f 135//135 119//119 118//118
f 44//44 43//43 48//48
f 4//4 143//143 20//20
f 25//25 106//106 128//128
f 91//91 82//82 141//141
f 80//80 79//79 69//69
f 10//10 12//12 122//122
f 102//102 108//108 107//107
f 99//99 114//114 113//113
f 99//99 98//98 8//8
f 91//91 93//93 144//144
f 83//83 82//82 90//90
f 103//103 105//105 128//128
f 67//67 72//72 71//71
f 40//40 37//37 131//131
f 24//24 75//75 74//74
f 62//62 61//61 3//3
f 134//134 42//42 41//41
f 32//32 31//31 24//24
f 11//11 146//146 147//147
f 88//88 87//87 86//86
f 129//129 59//59 58//58
f 116//116 66//66 65//65
f 144//144 11//11 10//10
f 115//115 145//145 93//93
f 118//118 137//137 95//95
f 40//40 42//42 133//133
f 71//71 70//70 140//140
f 38//38 37//37 33//33
f 127//127 130//130 27//27
f 111//111 36//36 35//35
f 49//49 51//51 136//136
f 48//48 120//120 119//119
f 86//86 85//85 143//143
f 103//103 112//112 122//122
f 14//14 13//13 124//124
f 111//111 110//110 98//98
f 121//121 21//21 110//110
f 76//76 79//79 139//139
f 123//123 148//148 105//105
f 101//101 100//100 15//15
f 87//87 21//21 20//20
f 121//121 35//35 34//34
f 45//45 63//63 62//62
f 30//30 60//60 59//59
f 64//64 66//66 139//139
f 132//132 74//74 73//73
f 107//107 106//106 18//18
f 3//3 81//81 80//80
f 149//149 51//51 50//50
f 33//33 54//54 53//53
f 94//94 140//140 5//5
f 49//49 52//52 133//133
f 47//47 46//46 135//135
f 76//76 78//78 141//141
f 113//113 112//112 102//102
f 90//90 9//9 8//8
f 72//72 6//6 5//5
f 64//64 61//61 136//136
f 23//23 22//22 132//132
f 16//16 30//30 29//29
f 18//18 39//39 38//38
f 25//25 27//27 131//131
f 150//150 125//125 126//126
f 143//143 4//4 6//6
f 144//144 7//7 9//9
f 121//121 19//19 21//21
f 124//124 34//34 36//36
f 131//131 37//37 39//39
f 133//133 52//52 54//54
f 132//132 58//58 60//60
f 136//136 61//61 63//63
f 135//135 73//73 75//75
f 139//139 79//79 81//81
f 141//141 82//82 84//84
f 140//140 94//94 96//96
f 128//128 106//106 108//108
f 122//122 112//112 114//114
f 117//117 149//149 151//151
f 145//145 115//115 146//146
f 115//115 142//142 116//116
f 142//142 138//138 116//116
f 115//115 134//134 148//148
f 134//134 117//117 151//151
f 134//134 152//152 130//130
f 148//148 134//134 127//127
f 123//123 147//147 115//115
f 134//134 115//115 117//117
f 134//134 130//130 127//127
f 137//137 118//118 120//120
f 115//115 147//147 146//146
f 123//123 115//115 148//148
f 19//19 34//34 4//4
f 113//113 101//101 14//14
f 73//73 34//34 58//58
f 14//14 36//36 111//111
f 4//4 34//34 73//73
f 94//94 4//4 73//73
f 34//34 150//150 58//58
f 99//99 7//7 114//114
f 113//113 14//14 111//111
f 122//122 12//12 147//147
f 107//107 17//17 29//29
f 15//15 100//100 107//107
f 122//122 147//147 123//123
f 103//103 108//108 112//112
f 15//15 107//107 29//29
f 127//127 128//128 148//148
f 32//32 23//23 38//38
f 38//38 23//23 30//30
f 128//128 105//105 148//148
f 16//16 38//38 30//30
f 18//18 106//106 39//39
f 41//41 131//131 152//152
f 47//47 75//75 24//24
f 131//131 130//130 152//152
f 53//53 44//44 47//47
f 33//33 37//37 54//54
f 53//53 47//47 24//24
f 56//56 120//120 48//48
f 151//151 133//133 134//134
f 62//62 2//2 56//56
f 151//151 50//50 133//133
f 45//45 52//52 63//63
f 56//56 48//48 62//62
f 117//117 136//136 149//149
f 71//71 96//96 57//57
f 57//57 1//1 80//80
f 136//136 51//51 149//149
f 3//3 61//61 81//81
f 57//57 80//80 71//71
f 138//138 139//139 116//116
f 86//86 6//6 72//72
f 72//72 67//67 83//83
f 139//139 66//66 116//116
f 76//76 84//84 79//79
f 72//72 83//83 86//86
f 115//115 92//92 141//141
f 110//110 21//21 87//87
f 141//141 142//142 115//115
f 8//8 98//98 110//110
f 90//90 82//82 9//9
f 8//8 110//110 87//87
f 146//146 11//11 144//144
f 52//52 45//45 53//53
f 144//144 145//145 146//146
f 120//120 56//56 137//137
f 1//1 57//57 2//2
f 126//126 125//125 15//15
f 67//67 69//69 83//83
f 55//55 57//57 95//95
f 150//150 34//34 125//125
f 77//77 138//138 78//78
f 126//126 29//29 129//129
f 73//73 135//135 118//118
f 47//47 44//44 48//48
f 19//19 4//4 20//20
f 26//26 25//25 128//128
f 92//92 91//91 141//141
f 68//68 80//80 69//69
f 114//114 10//10 122//122
f 100//100 102//102 107//107
f 97//97 99//99 113//113
f 7//7 99//99 8//8
f 9//9 91//91 144//144
f 89//89 83//83 90//90
f 108//108 103//103 128//128
f 68//68 67//67 71//71
f 41//41 40//40 131//131
f 22//22 24//24 74//74
f 2//2 62//62 3//3
f 152//152 134//134 41//41
f 23//23 32//32 24//24
f 12//12 11//11 147//147
f 89//89 88//88 86//86
f 150//150 129//129 58//58
f 117//117 116//116 65//65
f 7//7 144//144 10//10
f 92//92 115//115 93//93
f 94//94 118//118 95//95
f 54//54 40//40 133//133
f 96//96 71//71 140//140
f 32//32 38//38 33//33
f 26//26 127//127 27//27
f 109//109 111//111 35//35
f 63//63 49//49 136//136
f 46//46 48//48 119//119
f 6//6 86//86 143//143
f 104//104 103//103 122//122
f 36//36 14//14 124//124
f 97//97 111//111 98//98
f 109//109 121//121 110//110
f 77//77 76//76 139//139
f 104//104 123//123 105//105
f 14//14 101//101 15//15
f 85//85 87//87 20//20
f 19//19 121//121 34//34
f 43//43 45//45 62//62
f 28//28 30//30 59//59
f 81//81 64//64 139//139
f 58//58 132//132 73//73
f 17//17 107//107 18//18
f 1//1 3//3 80//80
f 151//151 149//149 50//50
f 31//31 33//33 53//53
f 4//4 94//94 5//5
f 50//50 49//49 133//133
f 75//75 47//47 135//135
f 84//84 76//76 141//141
f 101//101 113//113 102//102
f 88//88 90//90 8//8
f 70//70 72//72 5//5
f 65//65 64//64 136//136
f 60//60 23//23 132//132
f 17//17 16//16 29//29
f 16//16 18//18 38//38
f 39//39 25//25 131//131
f 129//129 150//150 126//126
