# Blender v2.71 (sub 5) OBJ File: ''
# www.blender.org
mtllib gem.mtl
o Diamond
v 0.000023 0.144956 0.000048
v 0.000023 -0.415044 0.000048
v 0.245023 0.144956 0.000048
v 0.395023 -0.000044 0.000048
v 0.173264 0.144956 0.173289
v 0.279330 -0.000044 0.279355
v 0.000023 0.144956 0.245048
v 0.000023 -0.000044 0.395048
v -0.173218 0.144956 0.173289
v -0.279284 -0.000044 0.279355
v -0.244977 0.144956 0.000048
v -0.394977 -0.000044 0.000048
v -0.173218 0.144956 -0.173193
v -0.279284 -0.000044 -0.279259
v 0.000023 0.144956 -0.244952
v 0.000023 -0.000044 -0.394952
v 0.173264 0.144956 -0.173193
v 0.279330 -0.000044 -0.279259
vn 0.693800 -0.660400 -0.287400
vn 0.693800 -0.660400 0.287400
vn 0.287400 -0.660400 0.693800
vn -0.287400 -0.660400 0.693800
vn -0.693800 -0.660400 0.287400
vn -0.693800 -0.660400 -0.287400
vn -0.287400 -0.660400 -0.693800
vn 0.287400 -0.660400 -0.693800
vn 0.667900 0.690900 -0.276700
vn 0.667900 0.690900 0.276700
vn 0.276700 0.690900 0.667900
vn -0.276700 0.690900 0.667900
vn -0.667900 0.690900 0.276700
vn -0.667900 0.690900 -0.276700
vn -0.276700 0.690900 -0.667900
vn 0.276700 0.690900 -0.667900
vn 0.000000 1.000000 -0.000000
usemtl None
s off
f 4//1 2//1 18//1
f 2//2 4//2 6//2
f 2//3 6//3 8//3
f 2//4 8//4 10//4
f 2//5 10//5 12//5
f 2//6 12//6 14//6
f 2//7 14//7 16//7
f 2//8 16//8 18//8
f 4//9 18//9 17//9
f 3//10 5//10 6//10
f 5//11 7//11 8//11
f 7//12 9//12 10//12
f 10//13 9//13 11//13
f 11//14 13//14 14//14
f 13//15 15//15 16//15
f 15//16 17//16 18//16
f 1//17 3//17 17//17
f 3//17 1//17 5//17
f 5//17 1//17 7//17
f 7//17 1//17 9//17
f 9//17 1//17 11//17
f 11//17 1//17 13//17
f 13//17 1//17 15//17
f 15//17 1//17 17//17
f 3//9 4//9 17//9
f 4//10 3//10 6//10
f 6//11 5//11 8//11
f 8//12 7//12 10//12
f 12//13 10//13 11//13
f 12//14 11//14 14//14
f 14//15 13//15 16//15
f 16//16 15//16 18//16
