# Blender v2.71 (sub 5) OBJ File: ''
# www.blender.org
o gem_1
v -0.489455 0.668925 0.000000
v -0.324361 0.493389 -0.186376
v -0.324361 0.493389 0.186376
v 0.296444 0.183213 -0.300187
v 0.196604 0.171416 -0.012615
v 0.010228 0.286602 -0.314178
v 0.300187 0.785899 -0.306242
v 0.314177 0.499683 -0.202853
v 0.012615 0.686059 -0.318040
v 0.306242 0.189269 -0.296444
v 0.318040 0.476840 -0.196604
v 0.202853 0.175278 -0.010228
v 0.300187 0.193011 -0.306242
v 0.012615 0.292852 -0.318040
v 0.314177 0.479227 -0.202853
v 0.306242 0.789642 0.296444
v 0.318040 0.502070 0.196604
v 0.202853 0.803633 0.010228
v 0.296444 0.795697 0.300187
v 0.196604 0.807495 0.012615
v 0.010228 0.692308 0.314178
v 0.300187 0.785899 0.306242
v 0.012615 0.686059 0.318040
v 0.314177 0.499683 0.202853
v 0.306242 0.189269 0.296444
v 0.202853 0.175278 0.010228
v 0.318040 0.476840 0.196604
v 0.296444 0.183213 0.300186
v 0.010228 0.286602 0.314177
v 0.196604 0.171416 0.012615
v -0.296444 0.795697 -0.300187
v -0.196604 0.807495 -0.012615
v -0.010228 0.692308 -0.314178
v 0.300187 0.193011 0.306242
v 0.314177 0.479227 0.202853
v 0.012615 0.292851 0.318039
v -0.306242 0.789642 -0.296444
v -0.318040 0.502070 -0.196604
v -0.202853 0.803633 -0.010228
v -0.300187 0.785899 -0.306242
v -0.012615 0.686059 -0.318040
v -0.314177 0.499683 -0.202853
v -0.306242 0.189269 -0.296444
v -0.202853 0.175278 -0.010228
v -0.318040 0.476840 -0.196604
v -0.296444 0.183213 -0.300187
v -0.010228 0.286602 -0.314178
v -0.196604 0.171416 -0.012615
v -0.306242 0.789642 0.296444
v -0.202853 0.803633 0.010228
v -0.318040 0.502070 0.196604
v -0.300187 0.193011 -0.306242
v -0.314177 0.479227 -0.202853
v -0.012615 0.292852 -0.318040
v -0.296444 0.795697 0.300187
v -0.010228 0.692308 0.314178
v -0.196604 0.807495 0.012615
v -0.300187 0.785899 0.306242
v -0.314177 0.499683 0.202853
v -0.012615 0.686059 0.318040
v -0.300187 0.193011 0.306242
v -0.012615 0.292851 0.318039
v -0.314177 0.479227 0.202853
v -0.306242 0.189269 0.296444
v -0.318040 0.476840 0.196604
v -0.202853 0.175278 0.010228
v 0.189268 0.483400 -0.485712
v 0.311746 0.485593 -0.206787
v 0.010184 0.299217 -0.321974
v 0.179470 0.489455 -0.489455
v 0.003934 0.303080 -0.324361
v 0.003934 0.675831 -0.324361
v -0.296444 0.183213 0.300186
v -0.196604 0.171416 0.012615
v -0.010228 0.286602 0.314177
v -0.189268 0.495511 -0.485712
v -0.311746 0.493317 -0.206787
v -0.010184 0.679693 -0.321974
v -0.179470 0.489455 -0.489455
v -0.003934 0.675831 -0.324361
v -0.003934 0.303080 -0.324361
v 0.189268 0.495511 -0.485712
v 0.010184 0.679693 -0.321974
v 0.311746 0.493317 -0.206787
v -0.189268 0.483400 -0.485712
v -0.010184 0.299217 -0.321974
v -0.311746 0.485593 -0.206787
v 0.179470 0.489455 0.489455
v 0.003934 0.675831 0.324361
v 0.003934 0.303079 0.324361
v 0.189268 0.495511 0.485712
v 0.311746 0.493317 0.206787
v 0.010184 0.679693 0.321974
v 0.189268 0.483400 0.485712
v 0.010184 0.299217 0.321973
v 0.311746 0.485593 0.206787
v -0.189268 0.495511 0.485712
v -0.010184 0.679693 0.321974
v -0.311746 0.493317 0.206787
v -0.179470 0.489455 0.489455
v -0.003934 0.303079 0.324361
v -0.003934 0.675831 0.324361
v -0.189268 0.483400 0.485712
v -0.311746 0.485593 0.206787
v -0.010184 0.299217 0.321973
v 0.489455 0.668925 0.000000
v 0.324361 0.493389 0.186376
v 0.324361 0.493389 -0.186375
v 0.485712 0.678723 0.006056
v 0.206787 0.801201 0.003862
v 0.321974 0.499639 0.190238
v 0.489455 0.309985 -0.000000
v 0.324361 0.485521 -0.186375
v 0.324361 0.485521 0.186375
v 0.485712 0.678723 -0.006055
v 0.321974 0.499639 -0.190238
v 0.206787 0.801201 -0.003862
v 0.485712 0.300187 -0.006056
v 0.206787 0.177709 -0.003862
v 0.321974 0.479272 -0.190238
v -0.485712 0.678723 -0.006055
v -0.206787 0.801201 -0.003862
v -0.321974 0.499639 -0.190238
v -0.485712 0.678723 0.006056
v -0.321974 0.499639 0.190238
v -0.206787 0.801201 0.003862
v 0.485712 0.300187 0.006055
v 0.321974 0.479272 0.190238
v 0.206787 0.177709 0.003862
v -0.485712 0.300187 -0.006056
v -0.321974 0.479272 -0.190238
v -0.206787 0.177709 -0.003862
v -0.489455 0.309985 -0.000000
v -0.324361 0.485521 0.186376
v -0.324361 0.485521 -0.186376
v 0.006055 0.975168 -0.189268
v 0.190238 0.811429 -0.010183
v 0.003862 0.696242 -0.311746
v -0.006055 0.975168 -0.189268
v -0.003862 0.696242 -0.311746
v -0.190238 0.811429 -0.010183
v -0.485712 0.300187 0.006055
v -0.206787 0.177709 0.003862
v -0.321974 0.479272 0.190238
v 0.000000 0.978910 0.179470
v 0.186375 0.813816 0.003935
v -0.186375 0.813816 0.003935
v 0.006055 0.975168 0.189268
v 0.003862 0.696242 0.311746
v 0.190238 0.811429 0.010184
v 0.000000 0.978910 -0.179470
v -0.186375 0.813816 -0.003934
v 0.186375 0.813816 -0.003934
v -0.006055 0.975168 0.189268
v -0.190238 0.811429 0.010184
v -0.003862 0.696242 0.311746
v -0.006055 0.003743 -0.189268
v -0.190238 0.167482 -0.010184
v -0.003862 0.282668 -0.311746
v 0.006055 0.003743 -0.189268
v 0.003862 0.282668 -0.311746
v 0.190238 0.167482 -0.010184
v -0.006055 0.003743 0.189268
v -0.003862 0.282668 0.311746
v -0.190238 0.167482 0.010183
v 0.000000 0.000000 0.179470
v -0.186376 0.165094 0.003934
v 0.186375 0.165094 0.003934
v 0.000000 0.000000 -0.179470
v 0.186375 0.165094 -0.003934
v -0.186375 0.165094 -0.003934
v 0.006055 0.003743 0.189268
v 0.190238 0.167482 0.010183
v 0.003862 0.282668 0.311746
v 0.296444 0.795697 -0.300187
v 0.010228 0.692308 -0.314178
v 0.196604 0.807495 -0.012615
v 0.306242 0.789642 -0.296444
v 0.318040 0.502070 -0.196604
v 0.202853 0.803633 -0.010228
vn -0.984400 -0.176000 0.000000
vn -0.918500 -0.123500 -0.375700
vn -0.918500 -0.123500 0.375700
vn 0.161700 -0.884400 -0.437800
vn 0.371700 -0.920900 -0.117100
vn -0.003900 -0.688700 -0.725000
vn 0.437800 0.161700 -0.884400
vn 0.725000 -0.003900 -0.688700
vn 0.117100 0.371700 -0.920900
vn 0.884400 -0.437800 -0.161700
vn 0.920900 -0.117100 -0.371700
vn 0.688700 -0.725000 0.003900
vn 0.437800 -0.161700 -0.884400
vn 0.117200 -0.371700 -0.920900
vn 0.725000 0.003900 -0.688700
vn 0.884400 0.437800 0.161700
vn 0.920900 0.117100 0.371700
vn 0.688700 0.725000 -0.003900
vn 0.161700 0.884400 0.437800
vn 0.371700 0.920900 0.117100
vn -0.003900 0.688700 0.725000
vn 0.437800 0.161700 0.884400
vn 0.117100 0.371700 0.920900
vn 0.725000 -0.003900 0.688700
vn 0.884400 -0.437800 0.161700
vn 0.688700 -0.725000 -0.003900
vn 0.920900 -0.117100 0.371700
vn 0.161700 -0.884400 0.437800
vn -0.003900 -0.688700 0.725000
vn 0.371700 -0.920900 0.117100
vn -0.161700 0.884400 -0.437800
vn -0.371700 0.920900 -0.117100
vn 0.003900 0.688700 -0.725000
vn 0.437800 -0.161700 0.884400
vn 0.725000 0.003900 0.688700
vn 0.117100 -0.371700 0.920900
vn -0.884400 0.437800 -0.161700
vn -0.920900 0.117200 -0.371700
vn -0.688700 0.725000 0.003900
vn -0.437800 0.161700 -0.884400
vn -0.117100 0.371700 -0.920900
vn -0.725000 -0.003900 -0.688700
vn -0.884400 -0.437800 -0.161700
vn -0.688700 -0.725000 0.003900
vn -0.920900 -0.117200 -0.371700
vn -0.161700 -0.884400 -0.437800
vn 0.003900 -0.688700 -0.725000
vn -0.371700 -0.920900 -0.117200
vn -0.884400 0.437800 0.161700
vn -0.688700 0.725000 -0.003900
vn -0.920900 0.117200 0.371700
vn -0.437800 -0.161700 -0.884400
vn -0.725000 0.003900 -0.688700
vn -0.117200 -0.371700 -0.920900
vn -0.161700 0.884400 0.437800
vn 0.004000 0.688700 0.725000
vn -0.371700 0.920900 0.117100
vn -0.437800 0.161700 0.884400
vn -0.725000 -0.003900 0.688700
vn -0.117100 0.371700 0.920900
vn -0.437800 -0.161700 0.884400
vn -0.117100 -0.371700 0.920900
vn -0.725000 0.003900 0.688700
vn -0.884400 -0.437800 0.161700
vn -0.920900 -0.117200 0.371700
vn -0.688700 -0.725000 -0.003900
vn 0.546600 -0.446600 -0.708300
vn 0.801300 -0.195900 -0.565200
vn 0.193500 -0.571600 -0.797400
vn -0.176100 0.000000 -0.984400
vn -0.123500 -0.375700 -0.918500
vn -0.123500 0.375700 -0.918500
vn -0.161700 -0.884400 0.437800
vn -0.371700 -0.920900 0.117100
vn 0.003900 -0.688700 0.725000
vn -0.546600 0.446600 -0.708300
vn -0.801300 0.195900 -0.565200
vn -0.193500 0.571600 -0.797400
vn 0.176100 0.000000 -0.984400
vn 0.123500 0.375700 -0.918500
vn 0.123500 -0.375700 -0.918500
vn 0.546600 0.446600 -0.708300
vn 0.193500 0.571600 -0.797400
vn 0.801300 0.195900 -0.565200
vn -0.546600 -0.446600 -0.708300
vn -0.193500 -0.571600 -0.797400
vn -0.801300 -0.195900 -0.565200
vn -0.176100 0.000000 0.984400
vn -0.123500 0.375700 0.918500
vn -0.123500 -0.375700 0.918500
vn 0.546600 0.446600 0.708300
vn 0.801300 0.195900 0.565200
vn 0.193500 0.571600 0.797400
vn 0.546600 -0.446600 0.708300
vn 0.193500 -0.571600 0.797400
vn 0.801400 -0.195900 0.565100
vn -0.546600 0.446600 0.708300
vn -0.193500 0.571600 0.797400
vn -0.801300 0.195900 0.565200
vn 0.176100 0.000000 0.984400
vn 0.123500 -0.375700 0.918500
vn 0.123500 0.375700 0.918500
vn -0.546600 -0.446600 0.708300
vn -0.801300 -0.195900 0.565200
vn -0.193500 -0.571600 0.797400
vn 0.984400 -0.176000 0.000000
vn 0.918500 -0.123500 0.375700
vn 0.918500 -0.123500 -0.375700
vn 0.708300 0.546600 0.446600
vn 0.565200 0.801300 0.195900
vn 0.797400 0.193500 0.571600
vn 0.984400 0.176000 0.000000
vn 0.918500 0.123500 -0.375700
vn 0.918500 0.123500 0.375700
vn 0.708300 0.546600 -0.446600
vn 0.797400 0.193500 -0.571600
vn 0.565200 0.801300 -0.195900
vn 0.708300 -0.546600 -0.446600
vn 0.565200 -0.801300 -0.195900
vn 0.797400 -0.193500 -0.571600
vn -0.708300 0.546600 -0.446600
vn -0.565200 0.801300 -0.195900
vn -0.797400 0.193500 -0.571600
vn -0.708300 0.546600 0.446600
vn -0.797400 0.193500 0.571600
vn -0.565200 0.801300 0.195900
vn 0.708300 -0.546600 0.446600
vn 0.797400 -0.193500 0.571600
vn 0.565200 -0.801300 0.195900
vn -0.708300 -0.546600 -0.446600
vn -0.797400 -0.193500 -0.571600
vn -0.565200 -0.801300 -0.195900
vn -0.984400 0.176000 0.000000
vn -0.918500 0.123500 0.375700
vn -0.918500 0.123500 -0.375700
vn 0.446600 0.708300 -0.546600
vn 0.571600 0.797400 -0.193500
vn 0.195900 0.565200 -0.801300
vn -0.446600 0.708300 -0.546600
vn -0.195900 0.565200 -0.801300
vn -0.571600 0.797400 -0.193500
vn -0.708300 -0.546600 0.446600
vn -0.565200 -0.801300 0.195900
vn -0.797400 -0.193500 0.571600
vn 0.000000 0.984400 -0.176100
vn 0.375700 0.918500 -0.123500
vn -0.375700 0.918500 -0.123500
vn 0.446600 0.708300 0.546600
vn 0.195900 0.565200 0.801300
vn 0.571600 0.797400 0.193500
vn 0.000000 0.984400 0.176100
vn -0.375700 0.918500 0.123500
vn 0.375700 0.918500 0.123500
vn -0.446600 0.708300 0.546600
vn -0.571600 0.797400 0.193500
vn -0.195900 0.565200 0.801300
vn -0.446600 -0.708300 -0.546600
vn -0.571600 -0.797400 -0.193500
vn -0.195900 -0.565200 -0.801300
vn 0.446600 -0.708300 -0.546600
vn 0.195900 -0.565200 -0.801300
vn 0.571600 -0.797400 -0.193500
vn -0.446600 -0.708300 0.546600
vn -0.195900 -0.565200 0.801300
vn -0.571600 -0.797400 0.193500
vn 0.000000 -0.984400 -0.176100
vn -0.375700 -0.918500 -0.123500
vn 0.375700 -0.918500 -0.123500
vn 0.000000 -0.984400 0.176100
vn 0.375700 -0.918500 0.123500
vn -0.375700 -0.918500 0.123500
vn 0.446600 -0.708300 0.546600
vn 0.571600 -0.797400 0.193500
vn 0.195900 -0.565200 0.801300
vn 0.161700 0.884400 -0.437800
vn -0.003900 0.688700 -0.725000
vn 0.371700 0.920900 -0.117100
vn 0.884400 0.437800 -0.161700
vn 0.920900 0.117100 -0.371700
vn 0.688700 0.725000 0.003900
s 1
f 1//1 2//2 3//3
f 4//4 5//5 6//6
f 7//7 8//8 9//9
f 10//10 11//11 12//12
f 13//13 14//14 15//15
f 16//16 17//17 18//18
f 19//19 20//20 21//21
f 22//22 23//23 24//24
f 25//25 26//26 27//27
f 28//28 29//29 30//30
f 31//31 32//32 33//33
f 34//34 35//35 36//36
f 37//37 38//38 39//39
f 40//40 41//41 42//42
f 43//43 44//44 45//45
f 46//46 47//47 48//48
f 49//49 50//50 51//51
f 52//52 53//53 54//54
f 55//55 56//56 57//57
f 58//58 59//59 60//60
f 61//61 62//62 63//63
f 64//64 65//65 66//66
f 67//67 68//68 69//69
f 70//70 71//71 72//72
f 73//73 74//74 75//75
f 76//76 77//77 78//78
f 79//79 80//80 81//81
f 82//82 83//83 84//84
f 85//85 86//86 87//87
f 88//88 89//89 90//90
f 91//91 92//92 93//93
f 94//94 95//95 96//96
f 97//97 98//98 99//99
f 100//100 101//101 102//102
f 103//103 104//104 105//105
f 106//106 107//107 108//108
f 109//109 110//110 111//111
f 112//112 113//113 114//114
f 115//115 116//116 117//117
f 118//118 119//119 120//120
f 121//121 122//122 123//123
f 124//124 125//125 126//126
f 127//127 128//128 129//129
f 130//130 131//131 132//132
f 133//133 134//134 135//135
f 136//136 137//137 138//138
f 139//139 140//140 141//141
f 142//142 143//143 144//144
f 145//145 146//146 147//147
f 148//148 149//149 150//150
f 151//151 152//152 153//153
f 154//154 155//155 156//156
f 157//157 158//158 159//159
f 160//160 161//161 162//162
f 163//163 164//164 165//165
f 166//166 167//167 168//168
f 169//169 170//170 171//171
f 172//172 173//173 174//174
f 175//175 176//176 177//177
f 175//175 178//178 7//7
f 13//13 10//10 4//4
f 16//16 19//19 22//22
f 25//25 34//34 28//28
f 40//40 37//37 31//31
f 46//46 43//43 52//52
f 55//55 49//49 58//58
f 61//61 64//64 73//73
f 67//67 70//70 82//82
f 76//76 79//79 85//85
f 88//88 94//94 91//91
f 100//100 97//97 103//103
f 106//106 115//115 109//109
f 112//112 127//127 118//118
f 121//121 1//1 124//124
f 130//130 142//142 133//133
f 139//139 151//151 136//136
f 148//148 145//145 154//154
f 169//169 157//157 160//160
f 163//163 166//166 172//172
f 72//72 80//80 78//78
f 84//84 8//8 179//179
f 117//117 150//150 110//110
f 6//6 161//161 71//71
f 17//17 24//24 92//92
f 147//147 152//152 141//141
f 87//87 53//53 45//45
f 21//21 149//149 156//156
f 162//162 5//5 30//30
f 74//74 132//132 165//165
f 125//125 3//3 104//104
f 164//164 174//174 29//29
f 102//102 98//98 97//97
f 37//37 40//40 42//42
f 126//126 122//122 121//121
f 48//48 44//44 43//43
f 12//12 5//5 4//4
f 125//125 51//51 50//50
f 124//124 1//1 3//3
f 159//159 161//161 160//160
f 57//57 50//50 49//49
f 129//129 119//119 118//118
f 101//101 90//90 89//89
f 159//159 158//158 48//48
f 27//27 26//26 129//129
f 16//16 18//18 20//20
f 67//67 69//69 71//71
f 56//56 156//156 155//155
f 162//162 170//170 169//169
f 58//58 60//60 56//56
f 107//107 114//114 113//113
f 94//94 96//96 92//92
f 179//179 180//180 117//117
f 22//22 24//24 17//17
f 120//120 113//113 112//112
f 82//82 84//84 68//68
f 36//36 29//29 28//28
f 32//32 141//141 140//140
f 177//177 180//180 178//178
f 6//6 14//14 13//13
f 13//13 15//15 11//11
f 78//78 80//80 79//79
f 31//31 33//33 41//41
f 151//151 153//153 137//137
f 134//134 3//3 2//2
f 105//105 101//101 100//100
f 9//9 176//176 175//175
f 164//164 75//75 74//74
f 120//120 119//119 12//12
f 138//138 137//137 177//177
f 63//63 65//65 64//64
f 142//142 144//144 134//134
f 163//163 165//165 167//167
f 117//117 110//110 109//109
f 174//174 164//164 163//163
f 111//111 107//107 106//106
f 152//152 147//147 146//146
f 138//138 140//140 139//139
f 5//5 162//162 161//161
f 85//85 87//87 77//77
f 150//150 149//149 21//21
f 133//133 135//135 131//131
f 38//38 123//123 122//122
f 17//17 111//111 110//110
f 54//54 53//53 87//87
f 49//49 51//51 59//59
f 23//23 93//93 92//92
f 91//91 93//93 89//89
f 15//15 14//14 69//69
f 96//96 95//95 36//36
f 141//141 152//152 151//151
f 60//60 59//59 99//99
f 78//78 77//77 42//42
f 21//21 23//23 22//22
f 88//88 90//90 95//95
f 79//79 81//81 86//86
f 167//167 171//171 170//170
f 72//72 83//83 82//82
f 30//30 26//26 25//25
f 178//178 179//179 8//8
f 171//171 158//158 157//157
f 29//29 174//174 173//173
f 166//166 168//168 173//173
f 114//114 128//128 127//127
f 66//66 65//65 144//144
f 75//75 62//62 61//61
f 44//44 132//132 131//131
f 71//71 81//81 80//80
f 39//39 32//32 31//31
f 54//54 47//47 46//46
f 66//66 74//74 73//73
f 132//132 143//143 142//142
f 8//8 84//84 83//83
f 97//97 99//99 104//104
f 2//2 1//1 123//123
f 108//108 116//116 115//115
f 43//43 45//45 53//53
f 148//148 150//150 146//146
f 154//154 156//156 149//149
f 145//145 147//147 155//155
f 63//63 62//62 105//105
f 27//27 35//35 34//34
f 178//178 180//180 179//179
f 33//33 9//9 41//41
f 33//33 140//140 138//138
f 138//138 176//176 9//9
f 9//9 83//83 72//72
f 11//11 108//108 113//113
f 138//138 9//9 33//33
f 72//72 78//78 9//9
f 120//120 11//11 113//113
f 9//9 78//78 41//41
f 20//20 18//18 110//110
f 11//11 15//15 68//68
f 116//116 108//108 179//179
f 84//84 179//179 68//68
f 68//68 179//179 11//11
f 150//150 137//137 153//153
f 108//108 11//11 179//179
f 180//180 137//137 117//117
f 180//180 177//177 137//137
f 146//146 150//150 153//153
f 69//69 14//14 6//6
f 150//150 20//20 110//110
f 159//159 47//47 161//161
f 117//117 137//137 150//150
f 54//54 81//81 47//47
f 54//54 86//86 81//81
f 92//92 96//96 35//35
f 161//161 47//47 71//71
f 47//47 81//81 71//71
f 71//71 69//69 6//6
f 128//128 92//92 27//27
f 128//128 114//114 107//107
f 107//107 111//111 17//17
f 122//122 126//126 141//141
f 38//38 42//42 77//77
f 128//128 107//107 17//17
f 128//128 17//17 92//92
f 92//92 35//35 27//27
f 126//126 50//50 57//57
f 32//32 39//39 122//122
f 2//2 123//123 38//38
f 126//126 57//57 155//155
f 155//155 147//147 141//141
f 126//126 155//155 141//141
f 32//32 122//122 141//141
f 102//102 93//93 98//98
f 131//131 135//135 45//45
f 2//2 77//77 135//135
f 2//2 38//38 77//77
f 135//135 77//77 87//87
f 156//156 56//56 60//60
f 135//135 87//87 45//45
f 102//102 89//89 93//93
f 21//21 60//60 23//23
f 168//168 170//170 162//162
f 60//60 93//93 23//23
f 93//93 60//60 98//98
f 12//12 119//119 5//5
f 21//21 156//156 60//60
f 132//132 44//44 48//48
f 129//129 26//26 30//30
f 30//30 173//173 168//168
f 5//5 119//119 129//129
f 132//132 74//74 143//143
f 5//5 129//129 30//30
f 30//30 168//168 162//162
f 59//59 51//51 99//99
f 165//165 132//132 167//167
f 74//74 66//66 143//143
f 158//158 167//167 48//48
f 158//158 171//171 167//167
f 104//104 99//99 125//125
f 167//167 132//132 48//48
f 134//134 63//63 3//3
f 134//134 144//144 65//65
f 36//36 105//105 62//62
f 101//101 36//36 90//90
f 65//65 63//63 134//134
f 3//3 63//63 104//104
f 99//99 51//51 125//125
f 29//29 36//36 62//62
f 62//62 75//75 164//164
f 100//100 102//102 97//97
f 38//38 37//37 42//42
f 164//164 29//29 62//62
f 36//36 95//95 90//90
f 101//101 105//105 36//36
f 124//124 126//126 121//121
f 46//46 48//48 43//43
f 10//10 12//12 4//4
f 126//126 125//125 50//50
f 125//125 124//124 3//3
f 157//157 159//159 160//160
f 55//55 57//57 49//49
f 127//127 129//129 118//118
f 102//102 101//101 89//89
f 47//47 159//159 48//48
f 128//128 27//27 129//129
f 19//19 16//16 20//20
f 70//70 67//67 71//71
f 57//57 56//56 155//155
f 160//160 162//162 169//169
f 55//55 58//58 56//56
f 108//108 107//107 113//113
f 91//91 94//94 92//92
f 116//116 179//179 117//117
f 16//16 22//22 17//17
f 118//118 120//120 112//112
f 67//67 82//82 68//68
f 34//34 36//36 28//28
f 33//33 32//32 140//140
f 175//175 177//177 178//178
f 4//4 6//6 13//13
f 10//10 13//13 11//11
f 76//76 78//78 79//79
f 40//40 31//31 41//41
f 136//136 151//151 137//137
f 135//135 134//134 2//2
f 103//103 105//105 100//100
f 7//7 9//9 175//175
f 165//165 164//164 74//74
f 11//11 120//120 12//12
f 176//176 138//138 177//177
f 61//61 63//63 64//64
f 133//133 142//142 134//134
f 166//166 163//163 167//167
f 115//115 117//117 109//109
f 172//172 174//174 163//163
f 109//109 111//111 106//106
f 153//153 152//152 146//146
f 136//136 138//138 139//139
f 6//6 5//5 161//161
f 76//76 85//85 77//77
f 20//20 150//150 21//21
f 130//130 133//133 131//131
f 39//39 38//38 122//122
f 18//18 17//17 110//110
f 86//86 54//54 87//87
f 58//58 49//49 59//59
f 24//24 23//23 92//92
f 88//88 91//91 89//89
f 68//68 15//15 69//69
f 35//35 96//96 36//36
f 139//139 141//141 151//151
f 98//98 60//60 99//99
f 41//41 78//78 42//42
f 19//19 21//21 22//22
f 94//94 88//88 95//95
f 85//85 79//79 86//86
f 168//168 167//167 170//170
f 70//70 72//72 82//82
f 28//28 30//30 25//25
f 7//7 178//178 8//8
f 169//169 171//171 157//157
f 30//30 29//29 173//173
f 172//172 166//166 173//173
f 112//112 114//114 127//127
f 143//143 66//66 144//144
f 73//73 75//75 61//61
f 45//45 44//44 131//131
f 72//72 71//71 80//80
f 37//37 39//39 31//31
f 52//52 54//54 46//46
f 64//64 66//66 73//73
f 130//130 132//132 142//142
f 9//9 8//8 83//83
f 103//103 97//97 104//104
f 123//123 1//1 121//121
f 106//106 108//108 115//115
f 52//52 43//43 53//53
f 145//145 148//148 146//146
f 148//148 154//154 149//149
f 154//154 145//145 155//155
f 104//104 63//63 105//105
f 25//25 27//27 34//34
